# asset-tooling medieval character kit OBJ v1
# recipe-version 1
o medieval-knight
g left-leg
v -260 0 -120
v -40 0 -120
v -40 720 -120
v -260 720 -120
v -260 0 120
v -40 0 120
v -40 720 120
v -260 720 120
f 1 3 2
f 1 4 3
f 5 6 7
f 5 7 8
f 1 2 6
f 1 6 5
f 4 8 7
f 4 7 3
f 1 5 8
f 1 8 4
f 2 3 7
f 2 7 6
g right-leg
v 40 0 -120
v 260 0 -120
v 260 720 -120
v 40 720 -120
v 40 0 120
v 260 0 120
v 260 720 120
v 40 720 120
f 9 11 10
f 9 12 11
f 13 14 15
f 13 15 16
f 9 10 14
f 9 14 13
f 12 16 15
f 12 15 11
f 9 13 16
f 9 16 12
f 10 11 15
f 10 15 14
g armored-torso
v -310 710 -180
v 310 710 -180
v 310 1470 -180
v -310 1470 -180
v -310 710 180
v 310 710 180
v 310 1470 180
v -310 1470 180
f 17 19 18
f 17 20 19
f 21 22 23
f 21 23 24
f 17 18 22
f 17 22 21
f 20 24 23
f 20 23 19
f 17 21 24
f 17 24 20
f 18 19 23
f 18 23 22
g helmet
v 220 1430 0
v 203.2536 1430 84.19026
v 155.56354 1430 155.56354
v 84.19026 1430 203.2536
v 0 1430 220
v -84.19026 1430 203.2536
v -155.56354 1430 155.56354
v -203.2536 1430 84.19026
v -220 1430 0
v -203.2536 1430 -84.19026
v -155.56354 1430 -155.56354
v -84.19026 1430 -203.2536
v 0 1430 -220
v 84.19026 1430 -203.2536
v 155.56354 1430 -155.56354
v 203.2536 1430 -84.19026
v 220 1790 0
v 203.2536 1790 84.19026
v 155.56354 1790 155.56354
v 84.19026 1790 203.2536
v 0 1790 220
v -84.19026 1790 203.2536
v -155.56354 1790 155.56354
v -203.2536 1790 84.19026
v -220 1790 0
v -203.2536 1790 -84.19026
v -155.56354 1790 -155.56354
v -84.19026 1790 -203.2536
v 0 1790 -220
v 84.19026 1790 -203.2536
v 155.56354 1790 -155.56354
v 203.2536 1790 -84.19026
v 0 1430 0
v 0 1790 0
f 25 41 26
f 26 41 42
f 57 25 26
f 58 42 41
f 26 42 27
f 27 42 43
f 57 26 27
f 58 43 42
f 27 43 28
f 28 43 44
f 57 27 28
f 58 44 43
f 28 44 29
f 29 44 45
f 57 28 29
f 58 45 44
f 29 45 30
f 30 45 46
f 57 29 30
f 58 46 45
f 30 46 31
f 31 46 47
f 57 30 31
f 58 47 46
f 31 47 32
f 32 47 48
f 57 31 32
f 58 48 47
f 32 48 33
f 33 48 49
f 57 32 33
f 58 49 48
f 33 49 34
f 34 49 50
f 57 33 34
f 58 50 49
f 34 50 35
f 35 50 51
f 57 34 35
f 58 51 50
f 35 51 36
f 36 51 52
f 57 35 36
f 58 52 51
f 36 52 37
f 37 52 53
f 57 36 37
f 58 53 52
f 37 53 38
f 38 53 54
f 57 37 38
f 58 54 53
f 38 54 39
f 39 54 55
f 57 38 39
f 58 55 54
f 39 55 40
f 40 55 56
f 57 39 40
f 58 56 55
f 40 56 25
f 25 56 41
f 57 40 25
f 58 41 56
g left-arm
v -490 750 -100
v -310 750 -100
v -310 1410 -100
v -490 1410 -100
v -490 750 100
v -310 750 100
v -310 1410 100
v -490 1410 100
f 59 61 60
f 59 62 61
f 63 64 65
f 63 65 66
f 59 60 64
f 59 64 63
f 62 66 65
f 62 65 61
f 59 63 66
f 59 66 62
f 60 61 65
f 60 65 64
g right-arm
v 310 750 -100
v 490 750 -100
v 490 1410 -100
v 310 1410 -100
v 310 750 100
v 490 750 100
v 490 1410 100
v 310 1410 100
f 67 69 68
f 67 70 69
f 71 72 73
f 71 73 74
f 67 68 72
f 67 72 71
f 70 74 73
f 70 73 69
f 67 71 74
f 67 74 70
f 68 69 73
f 68 73 72
g left-pauldron
v -360 1600 0
v -211.50753 1538.49247 0
v -254.999935 1538.49247 105.000065
v -360 1538.49247 148.49247
v -465.000065 1538.49247 105.000065
v -508.49247 1538.49247 0
v -465.000065 1538.49247 -105.000065
v -360 1538.49247 -148.49247
v -254.999935 1538.49247 -105.000065
v -150 1390 0
v -211.50753 1390 148.49247
v -360 1390 210
v -508.49247 1390 148.49247
v -570 1390 0
v -508.49247 1390 -148.49247
v -360 1390 -210
v -211.50753 1390 -148.49247
v -211.50753 1241.50753 0
v -254.999935 1241.50753 105.000065
v -360 1241.50753 148.49247
v -465.000065 1241.50753 105.000065
v -508.49247 1241.50753 0
v -465.000065 1241.50753 -105.000065
v -360 1241.50753 -148.49247
v -254.999935 1241.50753 -105.000065
v -360 1180 0
f 75 77 76
f 75 78 77
f 75 79 78
f 75 80 79
f 75 81 80
f 75 82 81
f 75 83 82
f 75 76 83
f 76 77 84
f 77 85 84
f 77 78 85
f 78 86 85
f 78 79 86
f 79 87 86
f 79 80 87
f 80 88 87
f 80 81 88
f 81 89 88
f 81 82 89
f 82 90 89
f 82 83 90
f 83 91 90
f 83 76 91
f 76 84 91
f 84 85 92
f 85 93 92
f 85 86 93
f 86 94 93
f 86 87 94
f 87 95 94
f 87 88 95
f 88 96 95
f 88 89 96
f 89 97 96
f 89 90 97
f 90 98 97
f 90 91 98
f 91 99 98
f 91 84 99
f 84 92 99
f 100 92 93
f 100 93 94
f 100 94 95
f 100 95 96
f 100 96 97
f 100 97 98
f 100 98 99
f 100 99 92
g right-pauldron
v 360 1600 0
v 508.49247 1538.49247 0
v 465.000065 1538.49247 105.000065
v 360 1538.49247 148.49247
v 254.999935 1538.49247 105.000065
v 211.50753 1538.49247 0
v 254.999935 1538.49247 -105.000065
v 360 1538.49247 -148.49247
v 465.000065 1538.49247 -105.000065
v 570 1390 0
v 508.49247 1390 148.49247
v 360 1390 210
v 211.50753 1390 148.49247
v 150 1390 0
v 211.50753 1390 -148.49247
v 360 1390 -210
v 508.49247 1390 -148.49247
v 508.49247 1241.50753 0
v 465.000065 1241.50753 105.000065
v 360 1241.50753 148.49247
v 254.999935 1241.50753 105.000065
v 211.50753 1241.50753 0
v 254.999935 1241.50753 -105.000065
v 360 1241.50753 -148.49247
v 465.000065 1241.50753 -105.000065
v 360 1180 0
f 101 103 102
f 101 104 103
f 101 105 104
f 101 106 105
f 101 107 106
f 101 108 107
f 101 109 108
f 101 102 109
f 102 103 110
f 103 111 110
f 103 104 111
f 104 112 111
f 104 105 112
f 105 113 112
f 105 106 113
f 106 114 113
f 106 107 114
f 107 115 114
f 107 108 115
f 108 116 115
f 108 109 116
f 109 117 116
f 109 102 117
f 102 110 117
f 110 111 118
f 111 119 118
f 111 112 119
f 112 120 119
f 112 113 120
f 113 121 120
f 113 114 121
f 114 122 121
f 114 115 122
f 115 123 122
f 115 116 123
f 116 124 123
f 116 117 124
f 117 125 124
f 117 110 125
f 110 118 125
f 126 118 119
f 126 119 120
f 126 120 121
f 126 121 122
f 126 122 123
f 126 123 124
f 126 124 125
f 126 125 118
g shield
v -790 725 -50
v -350 725 -50
v -350 1375 -50
v -790 1375 -50
v -790 725 50
v -350 725 50
v -350 1375 50
v -790 1375 50
f 127 129 128
f 127 130 129
f 131 132 133
f 131 133 134
f 127 128 132
f 127 132 131
f 130 134 133
f 130 133 129
f 127 131 134
f 127 134 130
f 128 129 133
f 128 133 132
g sword
v 535 325 -27.5
v 605 325 -27.5
v 605 1475 -27.5
v 535 1475 -27.5
v 535 325 27.5
v 605 325 27.5
v 605 1475 27.5
v 535 1475 27.5
f 135 137 136
f 135 138 137
f 139 140 141
f 139 141 142
f 135 136 140
f 135 140 139
f 138 142 141
f 138 141 137
f 135 139 142
f 135 142 138
f 136 137 141
f 136 141 140
